<?xml version="1.0" encoding="UTF-8"?>
<svg id="Capa_1" xmlns="http://www.w3.org/2000/svg" version="1.1" viewBox="0 0 1027.14 464.92">
  <!-- Generator: Adobe Illustrator 29.6.1, SVG Export Plug-In . SVG Version: 2.1.1 Build 9)  -->
  <defs>
    <style>
      .st0 {
        fill: none;
      }
    </style>
  </defs>
  <path class="st0" d="M614.99,233.64c0-15.46-13.11-28.58-28.58-28.58h-135.82v56.81h135.82c15.46,0,28.58-12.77,28.58-28.24Z"/>
  <polygon class="st0" points="779.03 429.79 750.29 360.64 706.86 464.75 752.25 429.79 779.03 429.79"/>
  <path class="st0" d="M598.85,102.53c0-15.46-12.77-28.24-28.58-28.24h-119.68v56.81h119.68c15.8,0,28.58-13.11,28.58-28.58Z"/>
  <polygon class="st0" points="625.14 381.64 625.14 351.32 568.57 351.32 568.57 416.63 599.04 381.64 625.14 381.64"/>
  <rect class="st0" x="34.84" y="349.8" width="56.56" height="30.32"/>
  <rect class="st0" x="319.17" y="349.8" width="55.06" height="78.58"/>
  <rect class="st0" x="172.56" y="349.8" width="56.56" height="30.32"/>
  <path d="M103.93,314.95H0v148.27h34.84v-48.12h69.08c6.23,0,11.51-2.19,15.84-6.56,4.32-4.37,6.49-9.63,6.49-15.76v-55.51c0-6.13-2.16-11.39-6.49-15.76-4.32-4.37-9.6-6.56-15.84-6.56ZM91.41,380.11h-56.56v-30.32h56.56v30.32Z"/>
  <path d="M258.69,407.11c3.52-4.12,5.28-8.9,5.28-14.33v-55.51c0-6.01-2.09-11.18-6.24-15.51-19.47,9.21-41.07,14.41-63.62,14.41-19.91,0-38.93-3.96-56.38-11.08v138.13h34.84v-48.12h29.87l27.15,48.12h43.29l-27.3-48.57c5.23-.91,9.6-3.42,13.12-7.54ZM229.12,380.11h-56.56v-30.32h56.56v30.32Z"/>
  <polygon points="833.8 336.18 833.8 464.92 868.64 464.92 868.64 336.18 858.38 336.18 833.8 336.18"/>
  <path d="M912.53,316.65h-17.17v19.53h-17.64v108.84c0,5.53,1.93,10.23,5.8,14.1,3.87,3.87,8.56,5.81,14.09,5.81h104.89v-34.84h-89.97v-113.43Z"/>
  <path d="M420.04,336.18c1.89,4.35,3.4,8.9,4.48,13.62h16.3v113.43h35v-113.43h46.31v-13.62h-102.08Z"/>
  <path d="M376.3,314.95h-71.91c-5.53,0-10.26,1.96-14.18,5.88-3.92,3.92-5.88,8.7-5.88,14.33v107.85c0,5.63,1.96,10.41,5.88,14.33,3.92,3.92,8.65,5.88,14.18,5.88h84.77c5.53,0,10.26-1.94,14.18-5.81,3.92-3.87,5.88-8.57,5.88-14.1v-107.13h-32.92v-21.23ZM374.23,428.38h-55.06v-78.58h55.06v78.58Z"/>
  <polygon points="730.77 316.01 668.88 464.75 706.86 464.75 750.29 360.64 779.03 429.79 752.25 429.79 706.86 464.75 831.69 464.75 769.81 316.01 730.77 316.01"/>
  <path d="M654.7,408.64c3.52-4.12,5.28-8.9,5.28-14.33v-55.51c0-6.13-2.16-11.39-6.49-15.76-2.49-2.52-5.3-4.31-8.42-5.38-16.64,11.66-36.87,18.52-58.66,18.52h-52.68v128.57h34.84v-113.43h56.56v30.32h-26.09l-30.47,34.99h29.86l27.15,48.12h43.29l-27.3-48.57c5.23-.91,9.6-3.42,13.12-7.54Z"/>
  <path d="M241.64,314.95c6.23,0,11.51,2.19,15.84,6.56.08.08.16.17.24.25,3.75-1.77,7.43-3.7,11.01-5.76,44.38-25.89,73.96-73.96,73.96-128.76V0h-73.96v187.25c0,41.01-33.95,74.63-74.63,74.63s-74.97-33.62-74.97-74.63V0H45.17v187.25c0,54.8,29.92,102.87,73.96,128.76,5.96,3.43,12.17,6.47,18.58,9.09v-10.15h103.93Z"/>
  <path d="M637.66,316.47c2.64,0,5.11.4,7.41,1.18,26.49-18.57,43.88-49.32,43.88-84.01,0-9.75-1.34-19.5-4.03-28.58-4.03-13.45-10.76-26.22-19.83-36.98-2.69-3.36-5.71-6.39-8.74-9.41,5.38-8.4,9.75-17.82,12.44-27.57,2.69-9.08,4.37-18.49,4.37-28.58,0-56.48-46.39-102.53-102.87-102.53h-193.98v314.95h12.86c5.53,0,10.26,1.94,14.18,5.81,3.92,3.87,5.88,8.57,5.88,14.1v1.32h10.81c-3.39-7.81-8-14.97-13.61-21.23h115.69v21.23h11.61v-19.7h103.93ZM450.6,74.3h119.68c15.8,0,28.58,12.77,28.58,28.24s-12.77,28.58-28.58,28.58h-119.68v-56.81ZM450.6,261.88v-56.81h135.82c15.46,0,28.58,13.11,28.58,28.58s-13.11,28.24-28.58,28.24h-135.82Z"/>
  <polygon points="895.36 316.65 895.36 195.66 1027.14 0 937.72 0 858.38 118 778.71 0 688.95 0 821.07 195.66 821.07 336.18 833.8 336.18 833.8 316.65 868.64 316.65 868.64 336.18 877.72 336.18 877.72 316.65 895.36 316.65"/>
</svg>